Coordinates
version=1
nRows=16
nColumns=22
inDegrees=yes

Units are S.I. units (second, meters, Newtons, ...)
If the header above contains a line with 'inDegrees', this indicates whether rotational values are in degrees (yes) or radians (no).

endheader
time	pelvis_tilt	pelvis_list	pelvis_rotation	pelvis_tx	pelvis_ty	pelvis_tz	hip_flexion_r	hip_adduction_r	hip_rotation_r	knee_angle_r	ankle_angle_r	subtalar_angle_r	hip_flexion_l	hip_adduction_l	hip_rotation_l	knee_angle_l	ankle_angle_l	subtalar_angle_l	lumbar_extension	lumbar_bending	lumbar_rotation
      1.49000000	      5.01765725	     -4.71384497	      7.63492459	     -1.35129903	      0.95079384	     -0.62806109	     -4.99770106	      4.92081378	    -10.74619601	     -9.59823426	     10.53164409	     -0.46191913	      2.62533066	     -6.36681443	     -8.41294643	    -23.47310957	     24.59883603	    -12.00725738	    -12.99163689	      5.80963299	     -9.57889080
      1.50000000	      5.04152411	     -4.81240460	      7.71194512	     -1.35070514	      0.95054161	     -0.62872005	     -5.02359585	      5.00204267	    -10.80677074	     -9.66408478	     10.64779377	     -0.45754351	      2.76298858	     -6.43166500	     -8.19207155	    -23.82385739	     24.94867760	    -12.15767302	    -13.05419217	      5.90084061	     -9.48353872
      1.51000000	      5.00013756	     -4.92194061	      7.78982028	     -1.35013705	      0.95018977	     -0.62944198	     -4.93273783	      5.07380845	    -10.86811234	     -9.81851228	     10.71630717	     -0.44912756	      2.97725834	     -6.48518924	     -7.92239230	    -24.17671915	     25.27429320	    -12.51178423	    -13.04753166	      5.99873252	     -9.42510028
      1.52000000	      5.04643080	     -5.00402722	      7.83267632	     -1.34939958	      0.94998904	     -0.63017487	     -4.95592487	      5.12284106	    -10.89404278	     -9.96449543	     10.84341779	     -0.43464759	      3.02153092	     -6.52380978	     -7.74146866	    -24.43344886	     25.57619667	    -12.57268002	    -13.13779135	      6.06536338	     -9.31590925
      1.53000000	      5.00413891	     -5.08451013	      7.90014008	     -1.34861880	      0.94963366	     -0.63099925	     -4.86675156	      5.15264390	    -10.95190776	    -10.15268264	     10.96543728	     -0.39651418	      3.18869076	     -6.54796027	     -7.55441281	    -24.73964079	     25.89309261	    -12.89385224	    -13.11525137	      6.12036457	     -9.28869543
      1.54000000	      5.03678891	     -5.12917659	      7.92805531	     -1.34767452	      0.94942075	     -0.63183643	     -4.86656495	      5.14631664	    -10.96770686	    -10.35546464	     11.12340753	     -0.37112606	      3.19502370	     -6.54617574	     -7.45303948	    -24.94404135	     26.17524644	    -12.96041180	    -13.17755637	      6.13451145	     -9.20631834
      1.55000000	      5.04396818	     -5.15766826	      7.94652412	     -1.34665733	      0.94917116	     -0.63272176	     -4.81314516	      5.10952803	    -10.97851324	    -10.62583621	     11.31488340	     -0.33142710	      3.20584411	     -6.52039287	     -7.36609333	    -25.12535419	     26.42819810	    -13.07664458	    -13.20892952	      6.12345615	     -9.15261294
      1.56000000	      5.05925168	     -5.17317188	      7.94932331	     -1.34554947	      0.94895180	     -0.63367557	     -4.75222928	      5.04982574	    -10.97479393	    -10.94233621	     11.48501629	     -0.30068436	      3.15627963	     -6.47393169	     -7.29055490	    -25.23162598	     26.64826644	    -13.12653519	    -13.24749498	      6.10252407	     -9.07982550
      1.57000000	      5.06054288	     -5.14565050	      7.95723927	     -1.34438515	      0.94869969	     -0.63467844	     -4.65499402	      4.93606624	    -10.97935951	    -11.32306326	     11.73501263	     -0.25406774	      3.10682239	     -6.38534230	     -7.25941778	    -25.32839044	     26.85283859	    -13.20032895	    -13.27317891	      6.01971185	     -9.04069720
      1.58000000	      5.05280620	     -5.08753535	      7.96285722	     -1.34316328	      0.94842759	     -0.63577864	     -4.52476835	      4.77710739	    -10.98258308	    -11.76633364	     12.00677595	     -0.20102131	      3.03940230	     -6.25361858	     -7.22348853	    -25.39114532	     27.02775449	    -13.27234941	    -13.29105198	      5.90913241	     -9.01190153
      1.59000000	      5.02237788	     -4.98956526	      7.98408495	     -1.34190674	      0.94810333	     -0.63699440	     -4.33629488	      4.56187059	    -10.98847813	    -12.29299122	     12.37093024	     -0.11664692	      2.98103499	     -6.06850890	     -7.18030328	    -25.43340644	     27.13427680	    -13.40728898	    -13.28523801	      5.75825100	     -9.04814831
      1.60000000	      5.00281895	     -4.86996696	      8.00502568	     -1.34060954	      0.94775967	     -0.63827979	     -4.12224001	      4.31627409	    -10.97935029	    -12.90090675	     12.71572376	     -0.04296269	      2.89044514	     -5.85248822	     -7.11156657	    -25.44828358	     27.28694270	    -13.48167743	    -13.29777333	      5.58346290	     -9.06641267
      1.61000000	      4.97439828	     -4.71729241	      8.03216476	     -1.33929014	      0.94736256	     -0.63966108	     -3.85459867	      4.02289868	    -10.95445458	    -13.60401251	     13.10122035	      0.03320544	      2.79470003	     -5.58753410	     -7.01133592	    -25.44350714	     27.42672583	    -13.53942295	    -13.30959187	      5.37733351	     -9.10014998
      1.62000000	      4.92475026	     -4.53560195	      8.07292594	     -1.33799769	      0.94687418	     -0.64112952	     -3.50673202	      3.68526313	    -10.91710382	    -14.42121886	     13.52733190	      0.13190300	      2.73460103	     -5.27177658	     -6.83516238	    -25.46271746	     27.53445553	    -13.65141708	    -13.31253148	      5.14037924	     -9.14744956
      1.63000000	      4.88150706	     -4.32574509	      8.08745444	     -1.33662086	      0.94634898	     -0.64261948	     -3.11314395	      3.30804628	    -10.83445464	    -15.35246715	     13.93919734	      0.20482394	      2.62715434	     -4.91678560	     -6.66542735	    -25.43078265	     27.67716501	    -13.71356827	    -13.32417814	      4.87378800	     -9.21657566
      1.64000000	      4.77970864	     -4.09981058	      8.13352657	     -1.33533898	      0.94565552	     -0.64419142	     -2.57814124	      2.89859098	    -10.73450974	    -16.42949181	     14.36263618	      0.31645322	      2.63694932	     -4.51451039	     -6.36135256	    -25.48396127	     27.78642334	    -14.02068727	    -13.29332854	      4.58710140	     -9.31044603
